<?xml version="1.0" encoding="UTF-8"?><svg xmlns="http://www.w3.org/2000/svg" width="213.34mm" height="180.28mm" viewBox="0 0 604.76 511.04"><defs><style>.cls-1{fill:#bdd02f;}.cls-1,.cls-2{stroke-width:0px;}.cls-2{fill:#646463;}</style></defs><g id="back"><path class="cls-2" d="M603.14,234c-.49-3.24-.04-24.89-.28-29.62-.24-4.73,2.48-12.64-.71-19.74-3.19-7.09-6.23-16.99-6.23-16.99,0,0-1.42-12.76-2.13-21.01-.71-8.24-4.76-16.66-4.76-16.66,0,0,.77-11.29.41-20.44-.35-9.16-6.26-18.14-14.06-23.4-7.8-5.26-17.43-4.9-17.43-4.9-1.77-4.25-23.99-11.82-27.89-14.77-3.9-2.95.35-8.15-4.14-19.26-4.47-11.06-17.42-9.35-17.53-9.34-.11-.01-13.06-1.72-17.53,9.34-4.49,11.11-.24,16.31-4.14,19.26s-26.12,10.52-27.89,14.77c0,0-9.63-.35-17.43,4.9-7.8,5.26-13.71,14.24-14.06,23.4s.41,20.44.41,20.44c0,0-4.05,8.42-4.76,16.66-.71,8.24-2.13,21.01-2.13,21.01,0,0-3.04,9.9-6.23,16.99-3.19,7.09-.47,15.01-.71,19.74-.24,4.73.21,26.38-.28,29.62-.49,3.24-1.95,16.75-1.55,18.08.4,1.33,4.17,3.68,8.77,3.28,4.61-.4,8.77-2.26,8.77-2.26,0,0,.35-7.71,2.07-14.09,1.71-6.38,7.03-20.33,8.98-23.93,1.95-3.6,4.96-16.07,5.55-20.27.59-4.2,1.74-22.72,1.74-22.72,0,0,3.63-4.7,4.7-10.49,1.06-5.79,2.19-11.23,2.19-11.23l1.77.06s3.04,8.89,4.99,12.79c1.95,3.9,3.1,10.19,3.28,13.03.18,2.84,1.42,10.72.09,16.31-1.33,5.58-2.57,11.79-1.95,16.31.62,4.52.62,7-.71,9.93s-6.2,33.77-7.27,39c-1.06,5.23-4.96,32.97-4.34,45.91.62,12.94,1.42,22.16,3.55,30.93,2.13,8.77,6.01,15.21,5.93,21.71-.08,6.5,1.93,11.11.51,20.8-1.42,9.69-4.85,22.81-5.08,30.13-.24,7.33,2.48,24.23,3.31,27.77.83,3.55,4.37,19.14,5.79,26.23,1.42,7.09,2.84,11.7,2.6,14.65-.24,2.95-1.42,6.15-1.18,8.51.24,2.36.95,4.49.59,5.44-.35.95-3.98,5.55-6.54,6.62-2.56,1.06-6.81.83-6.34,4.49.47,3.66,5,4.85,6.34,5.32,1.34.47,5.95,1.06,7.37,1.42,1.42.35,8.04,3.31,10.75,3.31s8.63-.83,9.81-4.25c1.18-3.43.24-8.27-.24-11.7-.47-3.43,2.25-11.7,2.25-13.24s-3.31-7.09-3.31-11.82,3.31-34.62,4.37-38.52c1.06-3.9,3.43-13.83,2.95-21.15-.47-7.33-2.36-19.73-2.6-22.22s4.96-19.5,5.32-21.86,1.62-17.46,1.98-22.78.97-16.75,2.04-20.21c1.06-3.46,3.19-14.18,3.99-19.5s1.24-17.02,1.33-19.59c.09-2.57-.53-7.27.18-8.24.62-.85,1.43-1.11,1.99-1.17.56.06,1.37.31,1.99,1.17.71.97.09,5.67.18,8.24.09,2.57.53,14.27,1.33,19.59s2.92,16.04,3.99,19.5c1.06,3.46,1.68,14.89,2.04,20.21.35,5.32,1.62,20.41,1.98,22.78s5.55,19.38,5.32,21.86-2.13,14.89-2.6,22.22c-.47,7.33,1.89,17.25,2.95,21.15,1.06,3.9,4.37,33.8,4.37,38.52s-3.31,10.28-3.31,11.82,2.72,9.81,2.25,13.24c-.47,3.43-1.42,8.27-.24,11.7,1.18,3.43,7.09,4.25,9.81,4.25s9.34-2.95,10.75-3.31c1.42-.35,6.03-.95,7.37-1.42,1.34-.47,5.87-1.65,6.34-5.32.47-3.66-3.78-3.43-6.34-4.49-2.56-1.06-6.18-5.67-6.54-6.62-.35-.95.35-3.07.59-5.44.24-2.36-.95-5.55-1.18-8.51-.24-2.95,1.18-7.56,2.6-14.65,1.42-7.09,4.96-22.69,5.79-26.23.83-3.55,3.55-20.44,3.31-27.77-.24-7.33-3.66-20.44-5.08-30.13-1.42-9.69.59-14.3.51-20.8-.08-6.5,3.8-12.94,5.93-21.71,2.13-8.77,2.92-17.99,3.55-30.93.62-12.94-3.28-40.68-4.34-45.91-1.06-5.23-5.94-36.07-7.27-39s-1.33-5.41-.71-9.93c.62-4.52-.62-10.72-1.95-16.31-1.33-5.58-.09-13.47.09-16.31.18-2.84,1.33-9.13,3.28-13.03,1.95-3.9,4.99-12.79,4.99-12.79l1.77-.06s1.12,5.44,2.19,11.23c1.06,5.79,4.7,10.49,4.7,10.49,0,0,1.15,18.52,1.74,22.72s3.6,16.66,5.55,20.27c1.95,3.6,7.27,17.55,8.98,23.93,1.71,6.38,2.07,14.09,2.07,14.09,0,0,4.17,1.86,8.77,2.26,4.61.4,8.38-1.95,8.77-3.28.4-1.33-1.06-14.85-1.55-18.08Z"/><path class="cls-1" d="M491.57,48.04l2.87,7.68s-4.61,7.25-4.96,7.27-.16-9.04.38-10.46,1.72-4.49,1.72-4.49Z"/><path class="cls-1" d="M436.66,144.61c-.7-.47-1.63-.39-2.3.12-1.72,1.32-5.13,4.66-6.13,11.02-1.36,8.63.59,13.94.35,16.84s-1,4.79,0,5.26,2.48-.12,3.31.47,3.19,3.72,4.08,3.37-1.36-7.27-.71-9.69,3.6-10.46,3.78-14.48c.16-3.61.89-10.69-2.38-12.91Z"/><g id="trapezius"><path class="cls-1" d="M502.68,41.1s-3.72-.18-4.08,6.12c-.35,6.29-4.96,16.13-12.23,19.85s-24.46,10.19-26.5,13.03,2.13,6.38,8.15,8.95,9.96,8.86,12.5,17.73c2.54,8.86,9.22,24.2,13.74,30.75s10.16,22.33,11.29,22.36,2.57-43.72,1.98-52.53-1.65-19.03-4.2-24.17-1.54-9.16,0-12.53,3.49-9.39,3.84-16.19c.35-6.79.77-13.18-4.49-13.38Z"/><path id="trapezius-2" class="cls-1" d="M514.38,41.1s3.72-.18,4.08,6.12,4.96,16.13,12.23,19.85,24.46,10.19,26.5,13.03-2.13,6.38-8.15,8.95-9.96,8.86-12.5,17.73c-2.54,8.86-9.22,24.2-13.74,30.75-4.52,6.56-10.16,22.33-11.29,22.36s-2.57-43.72-1.98-52.53,1.65-19.03,4.2-24.17,1.54-9.16,0-12.53-3.49-9.39-3.84-16.19-.77-13.18,4.49-13.38Z"/></g><path class="cls-1" d="M525.49,48.04l-2.87,7.68s4.61,7.25,4.96,7.27.16-9.04-.38-10.46-1.72-4.49-1.72-4.49Z"/><g id="delt"><path id="delt-2" class="cls-1" d="M467.22,91.97s-9.22-2.48-10.55-5.67-1.77-6.12-8.6-3.37-14.89,6.65-19.32,20.38c-4.43,13.74-.8,21.71-.53,21.63s6.38-6.65,11.88-9.13,13.91-6.56,17.99-9.84,12.85-11.88,9.13-14Z"/><path id="delt-3" class="cls-1" d="M549.83,91.97s9.22-2.48,10.55-5.67,1.77-6.12,8.6-3.37,14.89,6.65,19.32,20.38.8,21.71.53,21.63-6.38-6.65-11.88-9.13-13.91-6.56-17.99-9.84-12.85-11.88-9.13-14Z"/></g><g id="rhomboid"><path id="rhomboid-2" class="cls-1" d="M459.87,107.66c-.3.16-.43.5-.32.81.81,2.19,3.94,10.08,8.08,14.08,4.85,4.67,10.52,8.63,11.88,8.69s2.66-11.52.53-18.32c-2.13-6.79-6.32-14.95-8.15-15.36s-6.15,2.84-8.27,6.26c-1.49,2.39-2.98,3.43-3.75,3.84Z"/><path id="rhomboid-3" class="cls-1" d="M557.18,107.66c.3.16.43.5.32.81-.81,2.19-3.94,10.08-8.08,14.08-4.85,4.67-10.52,8.63-11.88,8.69s-2.66-11.52-.53-18.32,6.32-14.95,8.15-15.36,6.15,2.84,8.27,6.26c1.49,2.39,2.98,3.43,3.75,3.84Z"/></g><g id="teres-major"><path id="teres-major-2" class="cls-1" d="M474.2,131s-7.21-5.44-10.1-9.99-6.79-11.46-8.15-11.11-7.09,3.57-6.62,4.47,2.3,2.5,3.31,6.75-.06,7.27,4.67,9.45,9.9,3.13,13.04,3.19,5.51-.18,5.75-.83-1.89-1.95-1.89-1.95Z"/><path id="teres-major-3" class="cls-1" d="M542.86,131s7.21-5.44,10.1-9.99c2.9-4.55,6.79-11.46,8.15-11.11s7.09,3.57,6.62,4.47-2.3,2.5-3.31,6.75.06,7.27-4.67,9.45c-4.73,2.19-9.9,3.13-13.04,3.19s-5.51-.18-5.75-.83,1.89-1.95,1.89-1.95Z"/></g><path class="cls-1" d="M580.39,144.61c.7-.47,1.63-.39,2.3.12,1.72,1.32,5.13,4.66,6.13,11.02,1.36,8.63-.59,13.94-.35,16.84s1,4.79,0,5.26-2.48-.12-3.31.47-3.19,3.72-4.08,3.37,1.36-7.27.71-9.69-3.6-10.46-3.78-14.48c-.16-3.61-.89-10.69,2.38-12.91Z"/><g id="triceps"><path id="triceps-2" class="cls-1" d="M436.97,120.42s-11.05,6.97-13.18,20.5c-2.13,13.53-1.42,19.44,0,22.87s2.36,6.56,2.78,6.32-.89-11.34.47-15.72,4.08-10.58,6.97-13.59,2.07-10.04,3.31-14.18,1.48-6.32-.35-6.2Z"/><path id="triceps-3" class="cls-1" d="M444.45,117.05c-.82.04-1.54.53-1.87,1.28-1.08,2.45-3.48,8.27-4.27,13.56-1.03,6.91-.92,10.16.32,10.99s2.25,3.9,2.42,6.74.63,9.61-.69,13.4-.2,4.21,2.76,1.61,8.98-7.09,9.99-12.76,2.66-6.68,1.48-11.11-3.31-15.42-3.55-17.79-2.05-5.55-3.69-5.82c-.87-.14-2.02-.13-2.9-.09Z"/><path id="triceps-4" class="cls-1" d="M580.08,120.42s11.05,6.97,13.18,20.5c2.13,13.53,1.42,19.44,0,22.87s-2.36,6.56-2.78,6.32.89-11.34-.47-15.72-4.08-10.58-6.97-13.59-2.07-10.04-3.31-14.18c-1.24-4.14-1.48-6.32.35-6.2Z"/><path id="triceps-5" class="cls-1" d="M572.6,117.05c.82.04,1.54.53,1.87,1.28,1.08,2.45,3.48,8.27,4.27,13.56,1.03,6.91.92,10.16-.32,10.99s-2.25,3.9-2.42,6.74-.63,9.61.69,13.4.2,4.21-2.76,1.61-8.98-7.09-9.99-12.76c-1-5.67-2.66-6.68-1.48-11.11s3.31-15.42,3.55-17.79,2.05-5.55,3.69-5.82c.87-.14,2.02-.13,2.9-.09Z"/></g><g id="lats"><path id="lat" class="cls-1" d="M455.86,132.1c-.39-.15-.8.17-.74.59.41,2.92,1.64,11.91,1.64,14.93,0,3.63,4.07,13.26,5.93,18.64s1.25,7.5,2.57,10.87,4.25,10.02,6.65,13.74,5.58,8.77,5.85,10.64,1.2,8.55,1.73,8.82,4.79-9.35,5.14-10.95.04-9.08,1.2-10.72,4.82-3.72,6.47-5.61,3.57-6.56,4.14-8.15,1.45-5.51,6.9-7.73c0,0-.75-9.48-5.23-18.35s-7.43-16.18-13.81-14.7-8.33,2.66-13.41,2.3c-4.21-.29-12.35-3.3-15.03-4.33Z"/><path id="lat-2" class="cls-1" d="M561.19,132.1c.39-.15.8.17.74.59-.41,2.92-1.64,11.91-1.64,14.93,0,3.63-4.07,13.26-5.93,18.64-1.87,5.38-1.25,7.5-2.57,10.87s-4.25,10.02-6.65,13.74c-2.39,3.72-5.58,8.77-5.85,10.64s-1.2,8.55-1.73,8.82-4.79-9.35-5.14-10.95-.04-9.08-1.2-10.72-4.82-3.72-6.47-5.61-3.57-6.56-4.14-8.15-1.45-5.51-6.9-7.73c0,0,.75-9.48,5.23-18.35,4.48-8.86,7.43-16.18,13.81-14.7s8.33,2.66,13.41,2.3c4.21-.29,12.35-3.3,15.03-4.33Z"/></g><g id="forearm"><path id="forearm-2" class="cls-1" d="M420.83,167.7s-5.54,15.29-6.51,20.34-.62,12.32-.62,12.32c0,0,3.9-13.87,5.76-16.33s4.52-9.73,1.37-16.33Z"/><path id="forearm-3" class="cls-1" d="M447.37,177.85s.18,17.11-2.92,23.84-8.33,14-11.34,20.03-8.6,25.44-9.22,25.79-2.08.31-1.55-2.66,4.06-17.31,5.24-21.98,3.25-12.76,4.14-20.09,2.07-13.94,4.37-15.89,6.41-3.77,11.29-9.04Z"/><path id="forearm-4" class="cls-1" d="M423.18,179.67s-4.08,11.97-4.12,19.94,1.29,21.67.84,27.79-1.6,18.97-1.15,19.28,1.11.22,1.29-.89,1.95-8.38,2.88-11.74,4.03-14.89,4.96-18.83,1.86-11.3,1.46-16.44-2.84-17.59-6.16-19.1Z"/><path id="forearm-5" class="cls-1" d="M442.05,210.76s-6.85,15.6-8.92,22.98-2.74,10.58-3.7,11.76-2.09,2.17-1.97,1.32.83-10.19,4.31-17.57,4.2-10.28,10.28-18.49Z"/><path id="forearm-6" class="cls-1" d="M417.96,194.34s-2.76,8.51-3.47,14,.53,16.66-.22,21.49-1.37,13.91-1.37,13.91c0,0,.97,2.66,2.88,2.48s2.22-8.11,2.48-12.28.16-10.34,0-13.26-.75-10.31-.71-13.46-.16-9.22.41-12.9Z"/><path id="forearm-7" class="cls-1" d="M596.23,167.7s5.54,15.29,6.51,20.34.62,12.32.62,12.32c0,0-3.9-13.87-5.76-16.33s-4.52-9.73-1.37-16.33Z"/><path id="forearm-8" class="cls-1" d="M569.68,177.85s-.18,17.11,2.92,23.84c3.1,6.74,8.33,14,11.34,20.03s8.6,25.44,9.22,25.79,2.08.31,1.55-2.66-4.06-17.31-5.24-21.98-3.25-12.76-4.14-20.09c-.89-7.33-2.07-13.94-4.37-15.89s-6.41-3.77-11.29-9.04Z"/><path id="forearm-9" class="cls-1" d="M593.88,179.67s4.08,11.97,4.12,19.94c.04,7.98-1.29,21.67-.84,27.79.44,6.12,1.6,18.97,1.15,19.28s-1.11.22-1.29-.89-1.95-8.38-2.88-11.74-4.03-14.89-4.96-18.83-1.86-11.3-1.46-16.44,2.84-17.59,6.16-19.1Z"/><path id="forearm-10" class="cls-1" d="M575,210.76s6.85,15.6,8.92,22.98,2.74,10.58,3.7,11.76,2.09,2.17,1.97,1.32-.83-10.19-4.31-17.57c-3.49-7.39-4.2-10.28-10.28-18.49Z"/><path id="forearm-11" class="cls-1" d="M599.1,194.34s2.76,8.51,3.47,14-.53,16.66.22,21.49,1.37,13.91,1.37,13.91c0,0-.97,2.66-2.88,2.48s-2.22-8.11-2.48-12.28-.16-10.34,0-13.26.75-10.31.71-13.46.16-9.22-.41-12.9Z"/></g><g id="lumbar"><path id="lumbar-2" class="cls-1" d="M504.51,168.64s-3.43.77-5.26,5.08-3.13,9.1-5.55,11.34-4.37,2.36-5.5,4.14-1.12,4.67-1,6.85-1.42,8.04-3.13,10.87-2.6,4.9-1.3,5.38,4.43.12,7.21,2.42,6.09,7.21,7.21,9.1,2.3,5.26,3.13,6.74,2.42,4.25,3.84,4.31,1.89-.41,2.54-1.89,1.06-7.27.59-10.04-1.54-4.31-1.3-6.09.59-3.96.41-5.2-.41-3.72.3-4.96.88-2.66.79-4.67-1.5-4.55-1.33-5.79.41-2.36,1.06-3.96-1.24-4.73-1.06-5.85.65-2.22.8-3.4-.35-4.22-.21-5.38.15-6.2-.03-7.27-1.24-1.74-2.22-1.74Z"/><path id="lumbar-3" class="cls-1" d="M512.54,168.64s3.43.77,5.26,5.08,3.13,9.1,5.55,11.34,4.37,2.36,5.5,4.14,1.12,4.67,1,6.85,1.42,8.04,3.13,10.87,2.6,4.9,1.3,5.38-4.43.12-7.21,2.42-6.09,7.21-7.21,9.1-2.3,5.26-3.13,6.74-2.42,4.25-3.84,4.31-1.89-.41-2.54-1.89-1.06-7.27-.59-10.04,1.54-4.31,1.3-6.09-.59-3.96-.41-5.2.41-3.72-.3-4.96-.88-2.66-.79-4.67,1.5-4.55,1.33-5.79-.41-2.36-1.06-3.96,1.24-4.73,1.06-5.85-.65-2.22-.8-3.4.35-4.22.21-5.38-.15-6.2.03-7.27,1.24-1.74,2.22-1.74Z"/></g><g id="gluteus"><path id="gluteus-2" class="cls-1" d="M463.24,220.91c-.33.27-.55.64-.65,1.06-.68,2.97-3.47,15.52-3.1,18.75.41,3.66,1.89,10.75,2.54,10.34s3.42-9.82,8.92-14.85c5.75-5.26,15.38-10.6,18.14-11.62,2.93-1.08,3.78-2.66-1.83-7.27s-15.24-2.66-17.79-1.12c-2.01,1.21-5.04,3.71-6.23,4.71Z"/><path id="gluteus-3" class="cls-1" d="M488.2,227.96s-12.17,3.66-19.09,14.48c-6.91,10.81-6.68,20.62-5.97,28.18s3.99,20.95,3.99,20.95c0,0,3.18-6.56,8.37-8.51s17.16-2.13,21.32-5.05c4.17-2.92,9.93-8.24,10.02-15.78s1.03-16.13-2.16-19.2-6.5-8.92-7.39-11.7-4.24-5.41-9.1-3.37Z"/><path id="gluteus-4" class="cls-1" d="M553.82,220.91c.33.27.55.64.65,1.06.68,2.97,3.47,15.52,3.1,18.75-.41,3.66-1.89,10.75-2.54,10.34s-3.42-9.82-8.92-14.85c-5.75-5.26-15.38-10.6-18.14-11.62-2.93-1.08-3.78-2.66,1.83-7.27s15.24-2.66,17.79-1.12c2.01,1.21,5.04,3.71,6.23,4.71Z"/><path id="gluteus-5" class="cls-1" d="M528.85,227.96s12.17,3.66,19.09,14.48c6.91,10.81,6.68,20.62,5.97,28.18s-3.99,20.95-3.99,20.95c0,0-3.18-6.56-8.37-8.51-5.19-1.95-17.16-2.13-21.32-5.05-4.17-2.92-9.93-8.24-10.02-15.78-.09-7.53-1.03-16.13,2.16-19.2,3.19-3.07,6.5-8.92,7.39-11.7s4.24-5.41,9.1-3.37Z"/></g><g id="vastus-lateralis"><path class="cls-1" d="M459.51,272.6s-6.12,24.55-5.32,38.64,4.87,34.21,5.32,34.12.35-20.3,1.15-26.5,2.35-17.33,3.55-20.43-3.06-25.84-4.7-25.84Z"/><path class="cls-1" d="M557.54,272.6s6.12,24.55,5.32,38.64-4.87,34.21-5.32,34.12-.35-20.3-1.15-26.5-2.35-17.33-3.55-20.43,3.06-25.84,4.7-25.84Z"/></g><g id="gracilis"><path id="gracilis-2" class="cls-1" d="M504.15,276.08s-2.45,3.72-7.71,5.2-7.06.44-6.68,3.16,4.76,20.27,5.29,23.99,1.93,11.4,1.88,13.47.48,8.95.42,11.23.15,5.88.5,5.79,2.33-11.52,3.19-16.13,1.92-10.1,2.54-13.29,2.16-14.74,2.22-17.08-.68-15.95-1.65-16.34Z"/><path id="gracilis-3" class="cls-1" d="M512.9,276.08s2.45,3.72,7.71,5.2,7.06.44,6.68,3.16-4.76,20.27-5.29,23.99-1.93,11.4-1.88,13.47-.48,8.95-.42,11.23-.15,5.88-.5,5.79-2.33-11.52-3.19-16.13-1.92-10.1-2.54-13.29-2.16-14.74-2.22-17.08.68-15.95,1.65-16.34Z"/></g><g id="harmstring"><path id="harmstring-2" class="cls-1" d="M482.17,284.39s-9.1-1.77-13.77,10.22-6.44,29.96-5.97,38.58c.47,8.63-1.95,37.52-1.24,37.58s8.51-12.35,10.75-20.74c2.25-8.39,3.19-11.58,3.72-18.2.53-6.62,1.36-20.62,2.36-25.64s3.01-18.32,4.14-21.8Z"/><path id="harmstring-3" class="cls-1" d="M486.93,283.2s-.5-.53-2.01,3.93-4.97,17.25-5.29,21.42-2.66,27.55-1.6,34.29c1.06,6.74,3.72,19.78,6.5,26.57s5.5,13.29,5.5,13.29c0,0-.59-8.15-1.54-12.7s-2.36-15.42-2.19-22.1c.18-6.68,1.65-19.74,2.95-25.64,1.3-5.91,3.55-12.41,2.3-18.79-1.24-6.38-3.01-20.5-4.64-20.27Z"/><path id="harmstring-4" class="cls-1" d="M534.88,284.39s9.1-1.77,13.77,10.22,6.44,29.96,5.97,38.58,1.95,37.52,1.24,37.58-8.51-12.35-10.75-20.74-3.19-11.58-3.72-18.2c-.53-6.62-1.36-20.62-2.36-25.64s-3.01-18.32-4.14-21.8Z"/><path id="harmstring-5" class="cls-1" d="M530.12,283.2s.5-.53,2.01,3.93,4.97,17.25,5.29,21.42,2.66,27.55,1.6,34.29-3.72,19.78-6.5,26.57c-2.78,6.79-5.5,13.29-5.5,13.29,0,0,.59-8.15,1.54-12.7.95-4.55,2.36-15.42,2.19-22.1-.18-6.68-1.65-19.74-2.95-25.64s-3.55-12.41-2.3-18.79c1.24-6.38,3.01-20.5,4.64-20.27Z"/><path id="harmstring-6" class="cls-1" d="M523.51,313.46s2.43,14.62,3.83,20.12,2.46,12.23,2.11,17.55-3.37,20.56-3.37,20.56c0,0-3.37-17.81-4.17-22.16s-.62-18.26,0-25.26,1.6-10.81,1.6-10.81Z"/><path id="harmstring-7" class="cls-1" d="M493.55,313.46s-2.43,14.62-3.83,20.12c-1.4,5.5-2.46,12.23-2.11,17.55s3.37,20.56,3.37,20.56c0,0,3.37-17.81,4.17-22.16s.62-18.26,0-25.26c-.62-7-1.6-10.81-1.6-10.81Z"/></g><g id="calves"><path id="calves-2" class="cls-1" d="M461.07,375.14s.13,10.19-2.53,18.88c-2.66,8.69-2.13,22.6,0,26.85s6.38,6.12,9.48,4.17,5.23-6.56,5.94-11.88-.18-10.28.44-17.81,1.68-16.13,0-20.21-5.52-10.52-6.65-9.93-3.22,7.21-6.69,9.93Z"/><path id="calves-3" class="cls-1" d="M481.76,370.77s-2.38-.35-4,8.09-1.79,22.98-1.44,29.31c.35,6.32,1.48,11.34,3.37,15.24s5.55,7.74,8.15,7.56,4.9-5.5,5.44-8.04,1.06-12.94.59-16.9-1.36-11.58-3.78-18.49c-2.42-6.91-5.32-16.72-8.33-16.78Z"/><path id="calves-4" class="cls-1" d="M475.41,419.99s-1.74,5.38-5.11,7.21-6.68.71-6.15,1.89,5.32,12.53,6.91,18.61,4.08,16.96,4.49,21.09.53,20.03,1.06,20.38,2.54.83,3.66.65,1.42-.12,1.71-.59-1.06-10.69-.83-14.89.5-16.69,2.1-23.34,4.77-17.96,3.46-17.55c-1.94.6-9.84-6.21-11.32-13.47Z"/><path id="calves-5" class="cls-1" d="M459.16,425.22s1.5,16.04,6.86,28.27c5.37,12.23,8.02,25.79,8.02,25.79,0,0-2.04-22.87-4.7-31.2-2.66-8.33-7.18-23.31-10.19-22.87Z"/><path id="calves-6" class="cls-1" d="M555.99,375.14s-.13,10.19,2.53,18.88c2.66,8.69,2.13,22.6,0,26.85-2.13,4.25-6.38,6.12-9.48,4.17s-5.23-6.56-5.94-11.88.18-10.28-.44-17.81c-.62-7.53-1.68-16.13,0-20.21s5.52-10.52,6.65-9.93,3.22,7.21,6.69,9.93Z"/><path id="calves-7" class="cls-1" d="M535.29,370.77s2.38-.35,4,8.09c1.62,8.45,1.79,22.98,1.44,29.31s-1.48,11.34-3.37,15.24-5.55,7.74-8.15,7.56-4.9-5.5-5.44-8.04-1.06-12.94-.59-16.9,1.36-11.58,3.78-18.49,5.32-16.72,8.33-16.78Z"/><path id="calves-8" class="cls-1" d="M541.65,419.99s1.74,5.38,5.11,7.21c3.37,1.83,6.68.71,6.15,1.89s-5.32,12.53-6.91,18.61-4.08,16.96-4.49,21.09-.53,20.03-1.06,20.38-2.54.83-3.66.65-1.42-.12-1.71-.59,1.06-10.69.83-14.89-.5-16.69-2.1-23.34-4.77-17.96-3.46-17.55c1.94.6,9.84-6.21,11.32-13.47Z"/><path id="calves-9" class="cls-1" d="M557.89,425.22s-1.5,16.04-6.86,28.27c-5.37,12.23-8.02,25.79-8.02,25.79,0,0,2.04-22.87,4.7-31.2s7.18-23.31,10.19-22.87Z"/></g></g><g id="front"><path class="cls-2" d="M268.15,260.1c-1.76-1.74-3.15-3.37-4.2-4.73-1.68-2.18-2.77-3.98-3.43-5.08-.98-1.64-1.74-3.1-2.3-4.25-1.49-1.33-3.19-2.72-5.13-4.11-2.36-1.69-4.63-3.06-6.69-4.17-1.08-2.76-2.5-6.53-4.02-11.08-2.18-6.54-3.27-9.81-4.14-14.09-1.36-6.7-.64-7.85-2.42-16.31-.94-4.48-1.71-6.84-2.1-7.98-.3-.89-1.46-4.19-4.46-9.93-1.68-3.2-4.04-7.36-7.24-12.08-.51-1.14-1.19-2.92-1.6-5.17-.41-2.25-.29-3.54-.44-5.84-.18-2.63-.57-4.43-1.24-7.48-1.02-4.67-2.32-8.42-3.28-10.9-.8-2.07-1.89-4.61-3.37-7.44.4-2.15.82-5.05.91-8.51.07-2.46.17-6.18-.73-10.46-.64-3.02-2.1-9.55-7.62-15.33-4.31-4.52-8.99-6.38-11.08-7.18-5.18-1.99-9.75-2.21-12.5-2.13-3.77-2.41-7.04-4-9.35-5.01-3.1-1.35-11.52-4.76-15.02-7.84-.48-.42-1.58-1.41-2.48-3.06-.61-1.11-.91-2.13-1.06-2.84v-10.44c.35-.67.72-1.5,1-2.48.5-1.74.56-3.27.5-4.36.65-.09,1.61-.32,2.53-.97,1.07-.77,1.63-1.78,2.44-4.03,1.15-3.18,1.89-5.24,1.99-8.29.08-2.27.11-3.85-1.02-4.83-1.01-.88-2.41-.82-3.13-.74.3-1.84.57-4.43.41-7.5-.14-2.9-.31-6.38-2.13-10.28-.4-.87-2.29-4.77-6.5-8.09C143.54.57,137.21.03,134.4,0h0s-.02,0-.03,0c-.1,0-.19,0-.28,0-.09,0-.18,0-.28,0-.01,0-.02,0-.03,0h0c-2.81.03-9.14.57-14.86,5.08-4.21,3.32-6.1,7.23-6.5,8.09-1.81,3.9-1.98,7.38-2.13,10.28-.15,3.08.12,5.66.41,7.5-.72-.08-2.12-.14-3.13.74-1.13.98-1.1,2.56-1.02,4.83.11,3.05.85,5.1,1.99,8.29.81,2.25,1.36,3.27,2.44,4.03.91.65,1.87.88,2.53.97-.06,1.09,0,2.62.5,4.36.28.98.65,1.81,1,2.48v10.44c-.16.71-.46,1.73-1.06,2.84-.9,1.65-2.01,2.64-2.48,3.06-3.5,3.09-11.93,6.49-15.02,7.84-2.31,1.01-5.58,2.6-9.35,5.01-2.74-.08-7.32.14-12.5,2.13-2.08.8-6.77,2.66-11.08,7.18-5.52,5.78-6.98,12.31-7.62,15.33-.9,4.28-.8,8-.73,10.46.1,3.46.51,6.36.91,8.51-1.47,2.83-2.57,5.37-3.37,7.44-.96,2.49-2.26,6.23-3.28,10.9-.67,3.05-1.06,4.86-1.24,7.48-.16,2.3-.03,3.58-.44,5.84-.41,2.25-1.09,4.03-1.6,5.17-3.2,4.72-5.56,8.89-7.24,12.08-3.01,5.73-4.16,9.04-4.46,9.93-.39,1.13-1.15,3.5-2.1,7.98-1.78,8.46-1.06,9.61-2.42,16.31-.87,4.28-1.96,7.55-4.14,14.09-1.51,4.54-2.93,8.32-4.02,11.08-2.07,1.11-4.33,2.48-6.69,4.17-1.94,1.39-3.64,2.78-5.13,4.11-.57,1.16-1.33,2.62-2.3,4.25-.66,1.1-1.75,2.91-3.43,5.08-1.05,1.35-2.43,2.99-4.2,4.73,0,0-.59,4.02,3.96,3.72,4.55-.3,7.5-4.43,7.5-4.43,0,0-6.56,17.11-6.47,22.87.09,5.76,5.32,2.92,5.94,1.33,0,0-2.57,6.03,1.06,7.44,3.63,1.42,5.5-3.01,5.5-3.01,0,0,.8,3.19,3.28,2.92s3.81-2.92,4.52-4.61,1.15-4.52,1.15-4.52c0,0-.09,4.79,2.84,4.61s3.55-3.01,4.17-4.96c.62-1.95,2.19-9.6,3.25-12.67,1.06-3.07,4.08-8.45,4.31-11.94.24-3.49.06-11.7.06-11.7,0,0,6.03-13.47,10.04-17.84,4.02-4.37,15.48-21.31,16.72-26.03s3.46-11.99,3.99-15.45c.53-3.46,1.42-11.02,3.72-15.66,2.3-4.64,5.41-14.88,5.41-14.88,0,0,4.49,12.93,6.82,17.18,2.33,4.25,3.43,15.01,2.17,21.15-1.26,6.15-2.26,9.22-2.02,12.59s1.06,8.8.12,11.94c-.95,3.13-2.34,6.62-3.09,9.78-.75,3.16-.16,7.89-1.11,12.62-.95,4.73-6.5,24.52-7.09,36.43-.59,11.91-1.54,31.64-.59,39.09.95,7.44,4.85,25.41,5.55,27.53s.83,3.07.83,3.07c0,0-.59,13.53-.65,19.03-.06,5.5-.71,15.3-1.77,18.02s-3.96,17.84-3.43,25.94c.53,8.09,3.31,26.29,3.96,29.37.65,3.07,3.34,22.19,3.41,24.76.07,2.57.55,4.87,0,7.53-.55,2.66-2.06,5.14-1.7,7,.35,1.86,1.18,4.34.81,5.23-.37.89-4.18,7.8-8.17,10.46-3.99,2.66-6.91,5.14-6.91,8.69s2.22,4.34,3.55,4.52c1.33.18,1.6.89,2.66.89s2.57.49,2.84.62c.27.13,2.57.31,3.41.22.84-.09,2.88.49,3.63.02.75-.47,1.91.33,2.39.55s3.41,1.68,6.43,0c3.01-1.68,5.58-3.46,6.29-5.14.71-1.68.44-3.19.44-3.19,0,0,4.73-.47,5.67-4.61.95-4.14-1.89-9.81-1.6-11.94.3-2.13,1.71-5.32,1.42-7.68-.3-2.36-2.39-6.53-1.95-12.47.44-5.94,2.78-23.87,4.79-29.31s5.79-18.55,5.91-23.4-.6-18.08-1.9-23.52,2.13-14.3,2.96-16.31c.83-2.01,3.78-14.77,4.49-18.67.71-3.9,1.06-14.77,2.6-22.69s6.32-22.54,7.03-26.35c.71-3.81,2.48-17.37,2.92-21.27.44-3.9.18-10.33.18-10.33l1.48.22v.09l.32-.05.32.05v-.09l1.48-.22s-.27,6.43.18,10.33c.44,3.9,2.22,17.46,2.92,21.27.71,3.81,5.5,18.44,7.03,26.35s1.89,18.79,2.6,22.69c.71,3.9,3.66,16.66,4.49,18.67.83,2.01,4.25,10.87,2.96,16.31s-2.01,18.67-1.9,23.52,3.9,17.96,5.91,23.4,4.34,23.37,4.79,29.31c.44,5.94-1.65,10.1-1.95,12.47-.3,2.36,1.12,5.55,1.42,7.68.3,2.13-2.54,7.8-1.6,11.94.95,4.14,5.67,4.61,5.67,4.61,0,0-.27,1.51.44,3.19.71,1.68,3.28,3.46,6.29,5.14,3.01,1.68,5.94.22,6.43,0s1.64-1.02,2.39-.55c.75.47,2.79-.11,3.63-.02.84.09,3.15-.09,3.41-.22.27-.13,1.77-.62,2.84-.62s1.33-.71,2.66-.89c1.33-.18,3.55-.97,3.55-4.52s-2.92-6.03-6.91-8.69c-3.99-2.66-7.8-9.57-8.17-10.46-.37-.89.46-3.37.81-5.23.35-1.86-1.15-4.34-1.7-7-.55-2.66-.07-4.96,0-7.53.07-2.57,2.76-21.68,3.41-24.76s3.43-21.27,3.96-29.37c.53-8.09-2.36-23.22-3.43-25.94s-1.71-12.53-1.77-18.02c-.06-5.5-.65-19.03-.65-19.03,0,0,.12-.95.83-3.07s4.61-20.09,5.55-27.53c.95-7.44,0-27.18-.59-39.09-.59-11.91-6.15-31.7-7.09-36.43s-.35-9.45-1.11-12.62c-.75-3.16-2.14-6.65-3.09-9.78s-.12-8.57.12-11.94c.24-3.37-.77-6.44-2.02-12.59-1.26-6.15-.16-16.9,2.17-21.15,2.33-4.25,6.82-17.18,6.82-17.18,0,0,3.1,10.24,5.41,14.88,2.3,4.64,3.19,12.2,3.72,15.66.53,3.46,2.75,10.72,3.99,15.44,1.24,4.72,12.7,21.66,16.72,26.03,4.02,4.37,10.04,17.84,10.04,17.84,0,0-.18,8.21.06,11.7s3.25,8.86,4.31,11.94c1.06,3.07,2.63,10.72,3.25,12.67.62,1.95,1.24,4.79,4.17,4.96s2.84-4.61,2.84-4.61c0,0,.44,2.84,1.15,4.52s2.04,4.34,4.52,4.61,3.28-2.92,3.28-2.92c0,0,1.86,4.43,5.5,3.01,3.63-1.42,1.06-7.44,1.06-7.44.62,1.6,5.85,4.43,5.94-1.33.09-5.76-6.47-22.87-6.47-22.87,0,0,2.95,4.14,7.5,4.43,4.55.3,3.96-3.72,3.96-3.72Z"/><g id="delt-right"><path id="delt-4" class="cls-1" d="M60.86,121.13c.09-3.58.2-8.14,2.39-13.56,2.49-6.16,6.24-9.95,7.52-11.17,5.18-4.94,10.78-6.87,13.7-7.65,0,0-7.74-1.71-14.48,3.25-6.74,4.96-11.34,11.94-12.64,19.68-1.3,7.74,2.48,24.76,2.48,24.76l2.25-3.25c-.66-2.9-1.34-7.05-1.21-12.05Z"/><path id="delt-5" class="cls-1" d="M91.02,90.94c-.93-.28-2.3-.6-3.96-.65-4.5-.12-7.83,1.87-10.16,3.31-6.3,3.89-9.59,9.29-10.75,11.4-3.45,6.27-3.83,12.02-4.02,15.48-.26,4.76.35,8.7.95,11.34,2.12-2.38,4-4.15,5.32-5.32,3.68-3.26,5.06-3.68,7.39-6.44,1.86-2.21,2.92-4.24,3.72-5.79,2.11-4.06,1.55-4.74,3.49-8.21,1.19-2.14,2.39-4.29,4.73-6.32,3.07-2.67,4.61-3.96,4.61-3.96,1.55-1.29,2.32-1.91,2.25-2.66-.14-1.4-3.1-2.09-3.55-2.19Z"/></g><path id="pec" class="cls-1" d="M101.18,94.6c-2.97,1.15-8.41,3.75-12.94,9.34-1.78,2.19-5.1,6.4-6.03,12.82-.84,5.85.76,10.42,1.48,12.41,1.91,5.26,4.92,8.49,5.67,9.28,1.21,1.26,4.67,4.78,10.34,6.5,4.64,1.41,8.37.78,15.84-.47,6.11-1.03,8.29-2.28,9.63-3.25,2.81-2.03,4.24-4.46,4.9-5.61,4.88-8.48,2.24-18.5.83-23.87-1-3.8-2.24-6.38-3.07-7.92-1.44-2.67-3.01-4.71-4.25-6.15l-22.39-3.07Z"/><path class="cls-1" d="M82.84,131.5s-.74,17.15-.86,20.21,5.82,16.75,5.82,16.75c0,0-1.82-12.72-1.68-20.34s-.73-11.65-1.23-12.63-2.05-3.99-2.05-3.99Z"/><g id="biceps"><path id="biceps-2" class="cls-1" d="M57.07,131.82s-2.33,4.51-3.75,8.45-2.97,12.28-2.92,15.95,3.59,11.52,3.59,11.52c0,0,.35-7.44.53-12.98.18-5.54,3.37-11.48,4.12-14.09.75-2.61-1.57-8.85-1.57-8.85Z"/><path id="biceps-3" class="cls-1" d="M81.45,140.1c-.02-2.36-.1-6.61-.47-10.93-.09-1.06-.26-2.77-1.48-3.55-.76-.49-1.65-.42-2.42-.3-3.77.61-6.72,2.97-6.91,3.13-2.7,2.2-6.25,5.1-9.28,10.52-2.46,4.4-3.36,8.3-4.2,11.94-.73,3.16-1.01,5.6-1.18,7.15-.26,2.37-.63,6.77,0,12.17.59,5.02,1.45,5.86,2.13,6.2,1.04.52,2.4.25,4.96-1.12,5.61-3,9.01-6.96,9.51-7.56,5.08-6.04,7.08-12.04,7.62-13.77,1.74-5.57,1.9-10.49,1.71-13.89Z"/><path id="biceps-4" class="cls-1" d="M66.94,174.19s1.21,5.17,3.46,7.12c0,0,3-11.29,4.82-15.75,0,0-5.08,6.17-8.27,8.63Z"/></g><g id="forearm-front"><path class="cls-1" d="M47.78,167.22s-5.98,8.69-6.43,10.99-3.37,18.44-4.08,22.51-6.82,24.08-7.56,25.64-2.27,6.74-2.27,6.74l1.15.65s3.77-9.63,7.27-14.42,9.26-13.38,10.5-15.51,5.23-10.02,5.54-13.12.18-8.73-.53-13.69-3.59-9.79-3.59-9.79Z"/><path class="cls-1" d="M62.63,184.77s-8.64,6.69-10.57,11.61-7.31,17.64-9.2,21.48-9.81,17.96-9.81,17.96l1.95.77s5.11-7.77,9.5-13.26,8.77-11.88,9.88-13.96,6.34-12.1,7.27-13.83,4.08-6.43,4.08-6.43l-3.1-4.34Z"/><path class="cls-1" d="M66.48,190.31s-7.08,12.3-9.2,16.8-10.99,16.07-13,19.14-6.78,11.65-6.78,11.65l1.24.49s10.15-14.36,12.54-16.71,11.08-13.16,12.45-16.49,4.65-12.81,4.65-12.81l-1.91-2.08Z"/><path class="cls-1" d="M38.9,183.05s-3.37,6.79-4.49,13.41-5.2,25.53-6.32,28.66-2.3,7.8-2.3,7.8h.65s5.14-14.12,6.62-20.27,3.96-16.66,4.14-20.15,1.71-9.45,1.71-9.45Z"/></g><path class="cls-1" d="M103.49,233.75l5.94,20.73s3.1-7.47,2.92-10.36c0,0-5.26-5.67-8.86-10.36Z"/><path class="cls-1" d="M113.5,245.21s-2.34,8.61-3.28,10.81l3.28,10.9,5.67-13.29s-1.17-3.59-5.67-8.42Z"/><path class="cls-1" d="M116.69,60.42s-.75,7.89,1.51,13.91,6.91,18.83,6.91,18.83c0,0,1.68-.1,3.84,1.7s2.72,2.42,2.72,2.42l-10.86-32.53s-2.48-1.46-4.12-4.34Z"/><path class="cls-1" d="M151.57,60.42s.75,7.89-1.51,13.91-6.91,18.83-6.91,18.83c0,0-1.68-.1-3.84,1.7s-2.72,2.42-2.72,2.42l10.86-32.53s2.48-1.46,4.12-4.34Z"/><path class="cls-1" d="M116.57,73s5.35,16.4,7.08,19.41l-13.56-.84s4.74-4.3,5.18-8.6,1.3-9.97,1.3-9.97Z"/><path class="cls-1" d="M151.69,73s-5.35,16.4-7.08,19.41l13.56-.84s-4.74-4.3-5.18-8.6-1.3-9.97-1.3-9.97Z"/><g id="trapezius-front"><path class="cls-1" d="M115.01,71.58s-.27,10.33-1.46,12.76-4.83,7.05-4.83,7.05c0,0-14.89-2.66-18.61-5.36,0,0,13.96-6.87,16-7.98s8.91-6.47,8.91-6.47Z"/><path class="cls-1" d="M153.25,71.58s.27,10.33,1.46,12.76,4.83,7.05,4.83,7.05c0,0,14.89-2.66,18.61-5.36,0,0-13.96-6.87-16-7.98s-8.91-6.47-8.91-6.47Z"/></g><g id="delt-left"><path id="delt-6" class="cls-1" d="M210.92,111.68c-1.3-7.74-5.91-14.71-12.64-19.68-6.74-4.96-14.48-3.25-14.48-3.25,2.92.78,8.52,2.71,13.7,7.65,1.27,1.21,5.03,5,7.52,11.17,2.19,5.42,2.3,9.98,2.39,13.56.13,5-.55,9.15-1.21,12.05l2.25,3.25s3.78-17.02,2.48-24.76Z"/><path id="delt-7" class="cls-1" d="M202.12,105c-1.16-2.11-4.45-7.52-10.75-11.4-2.34-1.44-5.66-3.43-10.16-3.31-1.66.05-3.03.37-3.96.65-.45.1-3.4.79-3.55,2.19-.08.75.7,1.36,2.25,2.66,0,0,1.54,1.29,4.61,3.96,2.34,2.03,3.53,4.18,4.73,6.32,1.93,3.47,1.37,4.15,3.49,8.21.81,1.55,1.87,3.58,3.72,5.79,2.32,2.76,3.7,3.18,7.39,6.44,1.32,1.17,3.2,2.93,5.32,5.32.59-2.65,1.21-6.59.95-11.34-.19-3.46-.57-9.21-4.02-15.48Z"/></g><path id="pec-2" class="cls-1" d="M166.59,94.84c2.97,1.15,8.41,3.75,12.94,9.34,1.78,2.19,5.1,6.4,6.03,12.82.84,5.85-.76,10.42-1.48,12.41-1.91,5.26-4.92,8.49-5.67,9.28-1.21,1.26-4.67,4.78-10.34,6.5-4.64,1.41-8.37.78-15.84-.47-6.11-1.03-8.29-2.28-9.63-3.25-2.81-2.03-4.24-4.46-4.9-5.61-4.88-8.48-2.24-18.5-.83-23.87,1-3.8,2.24-6.38,3.07-7.92,1.44-2.67,3.01-4.71,4.25-6.15l22.39-3.07Z"/><path class="cls-1" d="M185.43,131.5s.74,17.15.86,20.21-5.82,16.75-5.82,16.75c0,0,1.82-12.72,1.68-20.34s.73-11.65,1.23-12.63,2.05-3.99,2.05-3.99Z"/><g id="biceps-right"><path class="cls-1" d="M214.94,140.27c-1.42-3.94-3.75-8.45-3.75-8.45,0,0-2.33,6.23-1.57,8.85.75,2.61,3.94,8.55,4.12,14.09.18,5.54.53,12.98.53,12.98,0,0,3.55-7.84,3.59-11.52s-1.51-12.01-2.92-15.95Z"/><path class="cls-1" d="M211.57,150.91c-.84-3.64-1.74-7.53-4.2-11.94-3.02-5.41-6.58-8.31-9.28-10.52-.19-.16-3.15-2.52-6.91-3.13-.77-.13-1.66-.19-2.42.3-1.21.77-1.39,2.49-1.48,3.55-.37,4.32-.45,8.57-.47,10.93-.19,3.39-.02,8.32,1.71,13.89.54,1.73,2.54,7.72,7.62,13.77.5.6,3.9,4.57,9.51,7.56,2.57,1.37,3.92,1.65,4.96,1.12.68-.34,1.54-1.18,2.13-6.2.63-5.4.26-9.8,0-12.17-.17-1.55-.45-3.99-1.18-7.15Z"/><path class="cls-1" d="M193.05,165.56c1.82,4.46,4.82,15.75,4.82,15.75,2.25-1.95,3.46-7.12,3.46-7.12-3.19-2.45-8.27-8.63-8.27-8.63Z"/></g><g id="forearm-right"><path class="cls-1" d="M220.48,167.22s5.98,8.69,6.43,10.99,3.37,18.44,4.08,22.51,6.82,24.08,7.56,25.64,2.27,6.74,2.27,6.74l-1.15.65s-3.77-9.63-7.27-14.42-9.26-13.38-10.5-15.51-5.23-10.02-5.54-13.12-.18-8.73.53-13.69,3.59-9.79,3.59-9.79Z"/><path class="cls-1" d="M205.63,184.77s8.64,6.69,10.57,11.61,7.31,17.64,9.2,21.48,9.81,17.96,9.81,17.96l-1.95.77s-5.11-7.77-9.5-13.26c-4.39-5.5-8.77-11.88-9.88-13.96s-6.34-12.1-7.27-13.83-4.08-6.43-4.08-6.43l3.1-4.34Z"/><path class="cls-1" d="M201.78,190.31s7.08,12.3,9.2,16.8,10.99,16.07,13,19.14,6.78,11.65,6.78,11.65l-1.24.49s-10.15-14.36-12.54-16.71-11.08-13.16-12.45-16.49-4.65-12.81-4.65-12.81l1.91-2.08Z"/><path class="cls-1" d="M229.36,183.05s3.37,6.79,4.49,13.41,5.2,25.53,6.32,28.66,2.3,7.8,2.3,7.8h-.65s-5.14-14.12-6.62-20.27-3.96-16.66-4.14-20.15-1.71-9.45-1.71-9.45Z"/></g><g id="oblique"><path class="cls-1" d="M87.36,140.39s9.93,9.16,15.6,8.74c0,0-4.2,3.37-8.63,3.19s-6.97-2.35-6.97-2.35v-9.59Z"/><path class="cls-1" d="M180.02,162.43s.12,6.56-1.48,7.74l-3.13-2.42s3.66-3.55,4.61-5.32Z"/><path class="cls-1" d="M177.72,162.9s-2.48,4.49-6.86,6.97-7.86,4.2-7.86,4.2c0,0-2.01-3.07-1.65-6.32s1.36-5.32,1.36-5.32c0,0,5.74.02,8.39-2.3,0,0,2.96,2.36,6.62,2.78Z"/><path class="cls-1" d="M93.62,154.1s1.77,5.02,5.44,5.85,6.44,1.18,6.44,1.18c0,0,2.54-4.96,2.9-7.03s-.65-5.02-2.84-4.61-4.67,3.77-11.94,4.61Z"/><path class="cls-1" d="M87.36,152.09l.44,8.09s.92,2.13,3.46,1.42,4.61-2.36,4.61-2.36c0,0-3.68-3.66-4.25-5.55l-4.25-1.6Z"/><path class="cls-1" d="M88.24,162.43s-.12,6.56,1.48,7.74l3.13-2.42s-3.66-3.55-4.61-5.32Z"/><path class="cls-1" d="M90.55,162.9s2.48,4.49,6.86,6.97,7.86,4.2,7.86,4.2c0,0,2.01-3.07,1.65-6.32s-1.36-5.32-1.36-5.32c0,0-5.74.02-8.39-2.3,0,0-2.96,2.36-6.62,2.78Z"/><path class="cls-1" d="M93.62,168.9l-3.69,3.24s1.6,4.7,5.94,8.6,8.51,5.63,8.51,5.63c0,0,2.17-2.88,2.22-6.47s-1.42-4.52-1.42-4.52c0,0-7.02-2.97-11.55-6.47Z"/><path class="cls-1" d="M91.61,177.45s1.51,6.29.84,11.97c0,0,1.77,4.25,5.1,6.78s6.34,5.36,7.09,5.05,1.6-4.87,1.55-7-1.99-6.91-1.99-6.91c0,0-8.2-2.57-12.59-9.88Z"/><path class="cls-1" d="M92.23,191.72s-1.11,6.34-1.91,10.19,0,10.5,0,10.5c0,0,4.65,7.03,10.27,10.04s8.21,2.95,8.21,2.95c0,0,.95-6.44-1-13.47s-3.13-9.34-3.13-9.34c0,0-8.51-4.17-12.44-10.89Z"/><path class="cls-1" d="M180.91,140.39s-9.93,9.16-15.6,8.74c0,0,4.2,3.37,8.63,3.19s6.97-2.35,6.97-2.35v-9.59Z"/><path class="cls-1" d="M174.64,154.1s-1.77,5.02-5.44,5.85-6.44,1.18-6.44,1.18c0,0-2.54-4.96-2.9-7.03s.65-5.02,2.84-4.61,4.67,3.77,11.94,4.61Z"/><path class="cls-1" d="M180.91,152.09l-.44,8.09s-.92,2.13-3.46,1.42-4.61-2.36-4.61-2.36c0,0,3.68-3.66,4.25-5.55l4.25-1.6Z"/><path class="cls-1" d="M174.64,168.9l3.69,3.24s-1.6,4.7-5.94,8.6-8.51,5.63-8.51,5.63c0,0-2.17-2.88-2.22-6.47s1.42-4.52,1.42-4.52c0,0,7.02-2.97,11.55-6.47Z"/><path class="cls-1" d="M176.65,177.45s-1.51,6.29-.84,11.97c0,0-1.77,4.25-5.1,6.78s-6.34,5.36-7.09,5.05-1.6-4.87-1.55-7,1.99-6.91,1.99-6.91c0,0,8.2-2.57,12.59-9.88Z"/><path class="cls-1" d="M176.03,191.72s1.11,6.34,1.91,10.19,0,10.5,0,10.5c0,0-4.65,7.03-10.27,10.04s-8.21,2.95-8.21,2.95c0,0-.95-6.44,1-13.47s3.13-9.34,3.13-9.34c0,0,8.51-4.17,12.44-10.89Z"/></g><g id="gluteus-front"><path class="cls-1" d="M88.86,220.71s-3.19,10.68-3.06,17.15l5.89-14.71-2.84-2.44Z"/><path class="cls-1" d="M179.4,220.71s3.19,10.68,3.06,17.15l-5.89-14.71,2.84-2.44Z"/></g><g id="tensor-facia-latae"><path class="cls-1" d="M92.85,224s-6.5,14.42-8.74,23.04-6.62,26.83-5.91,35.1c0,0,4.91-17.37,10.55-25.76s7.29-30.02,7.29-30.02l-3.19-2.36Z"/><path class="cls-1" d="M175.41,224s6.5,14.42,8.74,23.04,6.62,26.83,5.91,35.1c0,0-4.91-17.37-10.55-25.76s-7.29-30.02-7.29-30.02l3.19-2.36Z"/></g><g id="quadriceps"><path class="cls-1" d="M96.87,232.39s-2.3,15.95-5.17,21.27-6.17,19.85-6.65,30.49,1.18,42.9,6.62,50.7,8.63,2.84,9.34-1.54,5.2-17.14,5.67-21.27,1.65-25.88,1.65-25.88c0,0-10.87-26-11.46-53.77Z"/><path class="cls-1" d="M86.38,264.09s-8.15,18.35-8.69,27.56-.35,24.02,1.6,33.86,7,25.7,7.62,27.39,1.15,5.58,4.17-2.57,1-10.22-.89-15.07-4.11-10.58-5.22-26.77c-1.11-16.19-1.7-16.13-.81-25.7s2.22-18.7,2.22-18.7Z"/><path class="cls-1" d="M97.99,227.93s1.06,22.6,5.14,37.31,9.93,32.26,11.88,40.59,4.85,30.9,3.13,39.29h.52s2.08-12.7,2.67-19.26-.03-23.93-2.69-35.72c-2.66-11.79-9.48-32.11-12.56-41.92-3.07-9.81-4.25-16.78-4.96-17.96s-3.13-2.33-3.13-2.33Z"/><path class="cls-1" d="M109.34,290.59s.27,16.66-2.04,24.73-6.56,20.47-6.12,25.97.27,15.16,5.58,15.33,9.39-5.88,9.93-11.49.09-25.79-2.22-35.42-5.14-19.11-5.14-19.11Z"/><path class="cls-1" d="M171.39,232.39s2.3,15.95,5.17,21.27c2.87,5.32,6.17,19.85,6.65,30.49s-1.18,42.9-6.62,50.7-8.63,2.84-9.34-1.54-5.2-17.14-5.67-21.27-1.65-25.88-1.65-25.88c0,0,10.87-26,11.46-53.77Z"/><path class="cls-1" d="M181.88,264.09s8.15,18.35,8.69,27.56.35,24.02-1.6,33.86-7,25.7-7.62,27.39-1.15,5.58-4.17-2.57-1-10.22.89-15.07,4.11-10.58,5.22-26.77c1.11-16.19,1.7-16.13.81-25.7-.89-9.57-2.22-18.7-2.22-18.7Z"/><path class="cls-1" d="M170.27,227.93s-1.06,22.6-5.14,37.31-9.93,32.26-11.88,40.59-4.85,30.9-3.13,39.29h-.52s-2.08-12.7-2.67-19.26.03-23.93,2.69-35.72,9.48-32.11,12.56-41.92,4.25-16.78,4.96-17.96,3.13-2.33,3.13-2.33Z"/><path class="cls-1" d="M158.93,290.59s-.27,16.66,2.04,24.73,6.56,20.47,6.12,25.97-.27,15.16-5.58,15.33-9.39-5.88-9.93-11.49-.09-25.79,2.22-35.42c2.3-9.63,5.14-19.11,5.14-19.11Z"/></g><path class="cls-1" d="M164.77,233.75l-5.94,20.73s-3.1-7.47-2.92-10.36c0,0,5.26-5.67,8.86-10.36Z"/><path class="cls-1" d="M154.76,245.21s2.34,8.61,3.28,10.81l-3.28,10.9-5.67-13.29s1.17-3.59,5.67-8.42Z"/><g id="adductor"><path class="cls-1" d="M119.88,254.96l-5.58,13.47s6.73,22.16,7.24,30.55c0,0,5.11-21.09,4.64-30.08,0,0-3.49-4.25-6.29-13.94Z"/><path class="cls-1" d="M127.3,269.85s-1.65,24.76-5.14,32.5l.71,17.49s4.82-14,6.59-27.48,1.42-20.03,1.42-20.03c0,0-1.79-.61-3.57-2.48Z"/><path class="cls-1" d="M148.38,254.96l5.58,13.47s-6.73,22.16-7.24,30.55c0,0-5.11-21.09-4.64-30.08,0,0,3.49-4.25,6.29-13.94Z"/><path class="cls-1" d="M140.96,269.85s1.65,24.76,5.14,32.5l-.71,17.49s-4.82-14-6.59-27.48c-1.77-13.47-1.42-20.03-1.42-20.03,0,0,1.79-.61,3.57-2.48Z"/></g><g id="tibialis-anterior"><path class="cls-1" d="M83.28,377.12s-3.07,15.63-4.61,23.66,4.14,40.06,5.44,49.04,2.01,17.37,2.01,17.37l3.66-.53s-1.12-21.03-1.65-23.1-5.02-19.62-5.38-25.47-1.24-11.82-.89-16.6,2.84-20.44,2.84-20.44l-1.42-3.93Z"/><path class="cls-1" d="M86,380.99s-3.01,16.9-2.78,23.81,3.25,26.71,4.79,32.5,6.2,28.66,6.2,28.66h2.07s-2.36-17.25-2.63-23.19.09-21.89,0-25.35-1.55-22.69-2.53-26.68-1.7-10.86-5.13-9.75Z"/><path class="cls-1" d="M184.98,377.12s3.07,15.63,4.61,23.66-4.14,40.06-5.44,49.04-2.01,17.37-2.01,17.37l-3.66-.53s1.12-21.03,1.65-23.1,5.02-19.62,5.38-25.47,1.24-11.82.89-16.6-2.84-20.44-2.84-20.44l1.42-3.93Z"/><path class="cls-1" d="M182.26,380.99s3.01,16.9,2.78,23.81-3.25,26.71-4.79,32.5-6.2,28.66-6.2,28.66h-2.07s2.36-17.25,2.63-23.19-.09-21.89,0-25.35,1.55-22.69,2.53-26.68,1.7-10.86,5.13-9.75Z"/></g><g id="abs"><path class="cls-1" d="M112.48,164.56c.78.39,1.74-.11,3.37-1.06,5.06-2.95,4.75-3.31,6.43-3.94,2.36-.9,3.03-.21,6.38-1.51,1.74-.68,2.36-1.17,2.79-1.73.81-1.05.86-2.2.93-4.48.08-2.81.13-4.33-.93-5.48-.88-.95-2.07-1.16-2.92-1.3-2.77-.45-5,.69-8.91,2.75-2.79,1.47-4.22,2.24-5.45,3.72-1.67,2-2.25,4.1-2.53,5.14-.34,1.29-.59,2.95-.35,4.83.17,1.32.33,2.62,1.2,3.06Z"/><path class="cls-1" d="M131.09,162.43c-1.37-.58-9.84.52-13.83,4.67-3.99,4.15-5.94,6.06-5.5,9.96.44,3.9,8.55,1.24,12.32,1.29s7.92-.07,8.33-4.27c.4-4.2,0-6.5,0-6.5,0,0,.05-4.56-1.32-5.14Z"/><path class="cls-1" d="M113.18,198.06c.73.59,2.15.75,4.99,1.06,3.01.33,3.03.03,6.23.3,3.5.29,4.46.74,5.67,0,1.04-.64,1.44-1.65,1.95-2.95.66-1.72.85-3.29.57-9.39-.2-4.31-.36-4.92-.93-5.44-.73-.66-1.5-.6-6.79,0-3.28.37-6.51,1.23-9.81,1.42-1.36.08-2.28.07-3.01.77-.92.87-.88,2.21-.59,5.54.65,7.52,1.11,8.2,1.71,8.7Z"/><path class="cls-1" d="M128.83,203.38c-1.29.06-3.24.1-5.61,0-6.14-.26-8.33-1.21-9.69,0-1.56,1.39-.82,4.52.12,8.27,9.35,37.41,6.93,22.31,8.51,29.54.59,2.73,1.2,6.08,4.05,8.45,2.4,2,5.33,2.42,7.3,2.48v-44.43c-.85-.51-1.87-1.24-2.9-2.25-.73-.72-1.32-1.43-1.77-2.07Z"/><path class="cls-1" d="M136.81,156.32c.43.56,1.05,1.05,2.79,1.73,3.35,1.3,4.02.61,6.38,1.51,1.68.64,1.37.99,6.43,3.94,1.63.95,2.59,1.46,3.37,1.06.87-.44,1.03-1.74,1.2-3.06.24-1.88-.01-3.54-.35-4.83-.28-1.04-.86-3.14-2.53-5.14-1.23-1.48-2.66-2.25-5.45-3.72-3.9-2.06-6.13-3.2-8.91-2.75-.85.14-2.05.35-2.92,1.3-1.06,1.15-1.01,2.67-.93,5.48.07,2.27.12,3.43.93,4.48Z"/><path class="cls-1" d="M135.84,174.07c.4,4.2,4.56,4.31,8.33,4.27s11.88,2.61,12.32-1.29c.44-3.9-1.51-5.81-5.5-9.96-3.99-4.15-12.45-5.24-13.83-4.67-1.37.58-1.32,5.14-1.32,5.14,0,0-.4,2.3,0,6.5Z"/><path class="cls-1" d="M153.19,183.05c-3.3-.19-6.53-1.05-9.81-1.42-5.29-.6-6.07-.66-6.79,0-.57.52-.73,1.12-.93,5.44-.28,6.11-.09,7.68.57,9.39.51,1.31.91,2.32,1.95,2.95,1.21.74,2.18.29,5.67,0,3.21-.27,3.22.04,6.23-.3,2.84-.32,4.27-.47,4.99-1.06.6-.49,1.06-1.18,1.71-8.7.29-3.34.33-4.67-.59-5.54-.74-.7-1.65-.69-3.01-.77Z"/><path class="cls-1" d="M145.04,203.38c-2.37.1-4.32.06-5.61,0-.46.64-1.04,1.35-1.77,2.07-1.03,1.01-2.05,1.73-2.9,2.25v44.43c1.96-.06,4.89-.48,7.3-2.48,2.85-2.37,3.45-5.72,4.05-8.45,1.58-7.23-.84,7.86,8.51-29.54.94-3.75,1.68-6.89.12-8.27-1.36-1.21-3.55-.26-9.69,0Z"/></g><g id="calves-front"><path class="cls-1" d="M110.4,386.02s-6.38,9.57-7.68,15.07-1.06,10.28,0,13.12,5.97,12.41,5.97,12.41c0,0,2.95-12.59,3.37-18.97s-1.65-21.63-1.65-21.63Z"/><path class="cls-1" d="M101.24,414.32s3.84,10.22,6.85,14.12c0,0-2.66,9.16-2.72,12.11,0,0-4.79-9.93-4.79-11.94s.65-14.3.65-14.3Z"/><path class="cls-1" d="M100.59,434.26s4.61,6.77,3.75,11.49-2.51,14.83-2.51,14.83l-1.24-26.32Z"/><path class="cls-1" d="M157.86,386.02s6.38,9.57,7.68,15.07,1.06,10.28,0,13.12-5.97,12.41-5.97,12.41c0,0-2.95-12.59-3.37-18.97s1.65-21.63,1.65-21.63Z"/><path class="cls-1" d="M167.02,414.32s-3.84,10.22-6.85,14.12c0,0,2.66,9.16,2.72,12.11,0,0,4.79-9.93,4.79-11.94s-.65-14.3-.65-14.3Z"/><path class="cls-1" d="M167.67,434.26s-4.61,6.77-3.75,11.49,2.51,14.83,2.51,14.83l1.24-26.32Z"/></g></g></svg>
